<svg xmlns="http://www.w3.org/2000/svg" id="Ebene_1" viewBox="0 0 700 200"><defs><style>.cls-1{fill:none;stroke:#000;stroke-miterlimit:10;stroke-width:7.09px;}</style></defs><path class="cls-1" d="M116.5,144.25h17c9.94,0,18-8.06,18-18v-34c0-9.94-8.06-18-18-18h-14s-5.53-15.18-11-17c-6-2-22-2-28,0-5.37,1.79-10.6,17-10.6,17h-15.4c-9.94,0-18,8.06-18,18v34c0,9.94,8.06,18,18,18h18.74s32.26-28.87,37.26-35c3.45-4.24,9-16,2-21s-17,6-17,6c0,0-10.32-11.48-18-6-7,5-3.53,16.15,0,21,3.99,5.49,13.72,14.22,22.46,21.59s16.54,13.41,16.54,13.41Z"/><path d="M209.47,128.01l.45-16.04-14.91-.45-.45,16.04-10.43-.34,1.25-40.59,10.43.28-.45,16.1,14.85.45.51-16.1,10.54.34-1.25,40.59-10.54-.28Z"/><path d="M257.71,128.92l-28.68,1.53-2.1-40.53,28.17-1.47.45,8.5-17.69.91.4,7.6,16.21-.85.4,8.45-16.16.85.4,7.54,18.14-.96.45,8.45Z"/><path d="M276.99,115.2h-3.63c-.11,4.53-.17,9.07-.23,13.55h-10.54l.68-40.59c5.84.06,11.68.17,17.52.28,9.86.17,14.74,6.69,14.74,12.92,0,5.73-3.74,10.32-8.33,12.19,3.68,5.27,7.37,10.6,11.05,15.82-4.08-.06-8.16-.11-12.24-.23-3-4.59-6.01-9.3-9.01-13.94ZM279.08,107.26c3.91,0,5.44-2.78,5.44-5.44s-1.42-5.33-5.16-5.39l-5.67-.11-.23,10.88c1.93.06,3.63.06,5.61.06Z"/><path d="M335.49,127.39l-33.84,1.36-.4-9.24,19.16-23.64-19.84.85-.34-8.56,32.82-1.36.4,9.13-19.56,23.81,21.26-.96.34,8.62Z"/><path d="M369.34,129.03l-28.74-.68.91-40.64,28.23.68-.17,8.5-17.74-.45-.17,7.6,15.99.34-.17,8.5-15.99-.34-.17,7.54,18.2.4-.17,8.56Z"/><path d="M402.96,127.95l-17.18-24.38,1.47,25.34-9.75.57-2.44-40.47,11.17-.68,16.38,23.87-1.47-24.77,9.75-.57,2.44,40.47-10.37.62Z"/><path d="M434.71,128.86c-7.88,0-14.29-4.02-17.97-7.88l5.95-6.69c3,2.78,7.31,5.9,11.68,5.9,2.44,0,4.08-1.08,4.08-2.95,0-1.19-.85-2.49-2.83-3.4-1.25-.62-2.49-1.19-3.85-1.81l-2.61-1.19c-5.27-2.44-9.3-5.04-9.3-11.34,0-7.03,5.56-12.75,14.57-12.75,6.35,0,11.85,2.44,15.48,6.35l-5.9,6.92c-2.83-2.49-6.12-4.82-9.75-4.82-2.21,0-3.97,1.13-3.97,2.95,0,1.02.74,2.38,2.72,3.29,1.47.74,2.89,1.36,4.54,2.1l2.72,1.25c5.04,2.32,9.18,5.33,9.18,11.11,0,7.65-6.24,12.98-14.74,12.98Z"/><path d="M465.15,96.77l.57,9.75,16.1-.85.45,8.45-16.1.85.74,13.89-10.49.57-2.15-40.53,27.89-1.47.45,8.45-17.46.91Z"/><path d="M508.01,85.44c12.92,0,21.37,9.41,21.37,20.86s-8.39,21.03-21.03,21.03-21.43-9.35-21.43-20.86,8.5-21.03,21.09-21.03ZM517.98,106.01c0-6.58-3.63-11.79-9.75-11.79s-9.92,5.67-9.92,12.58,3.85,11.73,9.75,11.73c6.41,0,9.92-5.84,9.92-12.53Z"/><path d="M565.94,97.17l-11.79.11.28,31.57-10.49.06-.28-31.57-11.68.11-.11-9.07,33.96-.28.11,9.07Z"/><path d="M590.1,129.77c-12.7,0-21.09-9.47-21.09-20.97s8.45-20.86,21.37-20.86,21.09,9.3,21.09,21.03-8.62,20.8-21.37,20.8ZM600.07,109.3c0-6.92-3.74-12.58-9.92-12.58s-9.75,5.22-9.75,11.79,3.51,12.53,9.98,12.53c5.84,0,9.69-4.82,9.69-11.73Z"/><path d="M631.48,129.31c-8.39,0-14.17-4.14-16.55-6.12l5.27-7.26c3.23,2.44,7.43,4.76,11.45,4.76,3.23,0,4.65-1.53,4.65-3.29,0-1.36-.96-2.61-3.12-3.4-1.3-.51-2.61-.96-4.03-1.42l-2.78-.96c-5.78-2.1-10.37-4.37-10.37-11.62,0-6.58,5.16-12.7,15.08-12.7,6.46,0,11.34,2.21,14.29,4.88l-5.22,7.43c-3.17-2.27-6.12-3.74-9.35-3.74-3,0-4.42,1.36-4.42,3.06,0,1.13.68,2.44,2.95,3.29,1.53.62,3,1.08,4.71,1.64l2.78.96c5.56,1.93,10.15,4.71,10.15,11.34,0,7.82-6.24,13.15-15.48,13.15Z"/></svg>